<mxfile host="app.diagrams.net" modified="2022-08-25T07:04:39.528Z" agent="5.0 (Windows NT 10.0; Win64; x64) AppleWebKit/537.36 (KHTML, like Gecko) Chrome/104.0.5112.81 Safari/537.36 Edg/104.0.1293.54" etag="V_EzH1dX-Gas87MVlHDM" version="20.1.1" type="github">
  <diagram id="C5RBs43oDa-KdzZeNtuy" name="Page-1">
    <mxGraphModel dx="782" dy="426" grid="1" gridSize="10" guides="1" tooltips="1" connect="1" arrows="1" fold="1" page="1" pageScale="1" pageWidth="1169" pageHeight="1654" math="0" shadow="0">
      <root>
        <mxCell id="WIyWlLk6GJQsqaUBKTNV-0" />
        <mxCell id="WIyWlLk6GJQsqaUBKTNV-1" parent="WIyWlLk6GJQsqaUBKTNV-0" />
        <mxCell id="WIyWlLk6GJQsqaUBKTNV-2" value="" style="rounded=0;html=1;jettySize=auto;orthogonalLoop=1;fontSize=11;endArrow=block;endFill=0;endSize=8;strokeWidth=1;shadow=0;labelBackgroundColor=none;edgeStyle=orthogonalEdgeStyle;" parent="WIyWlLk6GJQsqaUBKTNV-1" source="WIyWlLk6GJQsqaUBKTNV-3" target="WIyWlLk6GJQsqaUBKTNV-6" edge="1">
          <mxGeometry relative="1" as="geometry" />
        </mxCell>
        <mxCell id="WIyWlLk6GJQsqaUBKTNV-3" value="执行检测" style="rounded=1;whiteSpace=wrap;html=1;fontSize=12;glass=0;strokeWidth=1;shadow=0;" parent="WIyWlLk6GJQsqaUBKTNV-1" vertex="1">
          <mxGeometry x="160" y="80" width="120" height="40" as="geometry" />
        </mxCell>
        <mxCell id="WIyWlLk6GJQsqaUBKTNV-4" value="Yes" style="rounded=0;html=1;jettySize=auto;orthogonalLoop=1;fontSize=11;endArrow=block;endFill=0;endSize=8;strokeWidth=1;shadow=0;labelBackgroundColor=none;edgeStyle=orthogonalEdgeStyle;" parent="WIyWlLk6GJQsqaUBKTNV-1" source="WIyWlLk6GJQsqaUBKTNV-6" edge="1">
          <mxGeometry y="20" relative="1" as="geometry">
            <mxPoint as="offset" />
            <mxPoint x="220" y="290" as="targetPoint" />
          </mxGeometry>
        </mxCell>
        <mxCell id="WIyWlLk6GJQsqaUBKTNV-5" value="No" style="edgeStyle=orthogonalEdgeStyle;rounded=0;html=1;jettySize=auto;orthogonalLoop=1;fontSize=11;endArrow=block;endFill=0;endSize=8;strokeWidth=1;shadow=0;labelBackgroundColor=none;" parent="WIyWlLk6GJQsqaUBKTNV-1" source="WIyWlLk6GJQsqaUBKTNV-6" target="WIyWlLk6GJQsqaUBKTNV-7" edge="1">
          <mxGeometry y="10" relative="1" as="geometry">
            <mxPoint as="offset" />
          </mxGeometry>
        </mxCell>
        <mxCell id="WIyWlLk6GJQsqaUBKTNV-6" value="检测结束" style="rhombus;whiteSpace=wrap;html=1;shadow=0;fontFamily=Helvetica;fontSize=12;align=center;strokeWidth=1;spacing=6;spacingTop=-4;" parent="WIyWlLk6GJQsqaUBKTNV-1" vertex="1">
          <mxGeometry x="170" y="170" width="100" height="80" as="geometry" />
        </mxCell>
        <mxCell id="58yIOTkPHo44h-EmWvCA-26" style="edgeStyle=orthogonalEdgeStyle;rounded=0;orthogonalLoop=1;jettySize=auto;html=1;exitX=0.5;exitY=0;exitDx=0;exitDy=0;endArrow=block;endFill=0;" edge="1" parent="WIyWlLk6GJQsqaUBKTNV-1" source="WIyWlLk6GJQsqaUBKTNV-7">
          <mxGeometry relative="1" as="geometry">
            <mxPoint x="220" y="140" as="targetPoint" />
            <Array as="points">
              <mxPoint x="380" y="140" />
              <mxPoint x="220" y="140" />
            </Array>
          </mxGeometry>
        </mxCell>
        <mxCell id="WIyWlLk6GJQsqaUBKTNV-7" value="uim上报检测进度" style="rounded=1;whiteSpace=wrap;html=1;fontSize=12;glass=0;strokeWidth=1;shadow=0;" parent="WIyWlLk6GJQsqaUBKTNV-1" vertex="1">
          <mxGeometry x="320" y="190" width="120" height="40" as="geometry" />
        </mxCell>
        <mxCell id="58yIOTkPHo44h-EmWvCA-8" style="edgeStyle=orthogonalEdgeStyle;rounded=0;orthogonalLoop=1;jettySize=auto;html=1;endArrow=block;endFill=0;" edge="1" parent="WIyWlLk6GJQsqaUBKTNV-1" source="58yIOTkPHo44h-EmWvCA-0">
          <mxGeometry relative="1" as="geometry">
            <mxPoint x="220" y="370" as="targetPoint" />
          </mxGeometry>
        </mxCell>
        <mxCell id="58yIOTkPHo44h-EmWvCA-0" value="uim上报检测结果" style="rounded=1;whiteSpace=wrap;html=1;" vertex="1" parent="WIyWlLk6GJQsqaUBKTNV-1">
          <mxGeometry x="160" y="290" width="120" height="40" as="geometry" />
        </mxCell>
        <mxCell id="58yIOTkPHo44h-EmWvCA-12" style="edgeStyle=orthogonalEdgeStyle;rounded=0;orthogonalLoop=1;jettySize=auto;html=1;entryX=0.5;entryY=0;entryDx=0;entryDy=0;endArrow=block;endFill=0;" edge="1" parent="WIyWlLk6GJQsqaUBKTNV-1" source="58yIOTkPHo44h-EmWvCA-2" target="58yIOTkPHo44h-EmWvCA-10">
          <mxGeometry relative="1" as="geometry" />
        </mxCell>
        <mxCell id="58yIOTkPHo44h-EmWvCA-42" style="edgeStyle=orthogonalEdgeStyle;rounded=0;orthogonalLoop=1;jettySize=auto;html=1;endArrow=block;endFill=0;" edge="1" parent="WIyWlLk6GJQsqaUBKTNV-1" source="58yIOTkPHo44h-EmWvCA-2" target="58yIOTkPHo44h-EmWvCA-40">
          <mxGeometry relative="1" as="geometry" />
        </mxCell>
        <mxCell id="58yIOTkPHo44h-EmWvCA-2" value="检测成功" style="rhombus;whiteSpace=wrap;html=1;" vertex="1" parent="WIyWlLk6GJQsqaUBKTNV-1">
          <mxGeometry x="180" y="370" width="80" height="80" as="geometry" />
        </mxCell>
        <mxCell id="58yIOTkPHo44h-EmWvCA-14" style="edgeStyle=orthogonalEdgeStyle;rounded=0;orthogonalLoop=1;jettySize=auto;html=1;exitX=0.5;exitY=1;exitDx=0;exitDy=0;entryX=0.5;entryY=0;entryDx=0;entryDy=0;endArrow=block;endFill=0;" edge="1" parent="WIyWlLk6GJQsqaUBKTNV-1" source="58yIOTkPHo44h-EmWvCA-10" target="58yIOTkPHo44h-EmWvCA-13">
          <mxGeometry relative="1" as="geometry" />
        </mxCell>
        <mxCell id="58yIOTkPHo44h-EmWvCA-10" value="下载安装包" style="rounded=1;whiteSpace=wrap;html=1;" vertex="1" parent="WIyWlLk6GJQsqaUBKTNV-1">
          <mxGeometry x="160" y="480" width="120" height="40" as="geometry" />
        </mxCell>
        <mxCell id="58yIOTkPHo44h-EmWvCA-16" style="edgeStyle=orthogonalEdgeStyle;rounded=0;orthogonalLoop=1;jettySize=auto;html=1;exitX=1;exitY=0.5;exitDx=0;exitDy=0;entryX=0;entryY=0.5;entryDx=0;entryDy=0;endArrow=block;endFill=0;" edge="1" parent="WIyWlLk6GJQsqaUBKTNV-1" source="58yIOTkPHo44h-EmWvCA-13" target="58yIOTkPHo44h-EmWvCA-15">
          <mxGeometry relative="1" as="geometry" />
        </mxCell>
        <mxCell id="58yIOTkPHo44h-EmWvCA-22" style="edgeStyle=orthogonalEdgeStyle;rounded=0;orthogonalLoop=1;jettySize=auto;html=1;entryX=0.5;entryY=0;entryDx=0;entryDy=0;endArrow=block;endFill=0;" edge="1" parent="WIyWlLk6GJQsqaUBKTNV-1" source="58yIOTkPHo44h-EmWvCA-13" target="58yIOTkPHo44h-EmWvCA-21">
          <mxGeometry relative="1" as="geometry" />
        </mxCell>
        <mxCell id="58yIOTkPHo44h-EmWvCA-13" value="下载结束" style="rhombus;whiteSpace=wrap;html=1;" vertex="1" parent="WIyWlLk6GJQsqaUBKTNV-1">
          <mxGeometry x="180" y="560" width="80" height="80" as="geometry" />
        </mxCell>
        <mxCell id="58yIOTkPHo44h-EmWvCA-28" style="edgeStyle=orthogonalEdgeStyle;rounded=0;orthogonalLoop=1;jettySize=auto;html=1;exitX=0.5;exitY=0;exitDx=0;exitDy=0;endArrow=block;endFill=0;" edge="1" parent="WIyWlLk6GJQsqaUBKTNV-1" source="58yIOTkPHo44h-EmWvCA-15">
          <mxGeometry relative="1" as="geometry">
            <mxPoint x="220" y="540" as="targetPoint" />
            <Array as="points">
              <mxPoint x="380" y="540" />
              <mxPoint x="220" y="540" />
            </Array>
          </mxGeometry>
        </mxCell>
        <mxCell id="58yIOTkPHo44h-EmWvCA-15" value="uim上报下载进度" style="rounded=1;whiteSpace=wrap;html=1;" vertex="1" parent="WIyWlLk6GJQsqaUBKTNV-1">
          <mxGeometry x="320" y="580" width="120" height="40" as="geometry" />
        </mxCell>
        <mxCell id="58yIOTkPHo44h-EmWvCA-20" style="edgeStyle=orthogonalEdgeStyle;rounded=0;orthogonalLoop=1;jettySize=auto;html=1;exitX=0.5;exitY=1;exitDx=0;exitDy=0;entryX=0.5;entryY=0;entryDx=0;entryDy=0;endArrow=block;endFill=0;" edge="1" parent="WIyWlLk6GJQsqaUBKTNV-1" source="58yIOTkPHo44h-EmWvCA-17" target="58yIOTkPHo44h-EmWvCA-19">
          <mxGeometry relative="1" as="geometry" />
        </mxCell>
        <mxCell id="58yIOTkPHo44h-EmWvCA-17" value="uim上报下载成功&lt;br&gt;avnt显示小红点" style="rounded=1;whiteSpace=wrap;html=1;" vertex="1" parent="WIyWlLk6GJQsqaUBKTNV-1">
          <mxGeometry x="160" y="800" width="120" height="40" as="geometry" />
        </mxCell>
        <mxCell id="58yIOTkPHo44h-EmWvCA-31" style="edgeStyle=orthogonalEdgeStyle;rounded=0;orthogonalLoop=1;jettySize=auto;html=1;entryX=0.5;entryY=0;entryDx=0;entryDy=0;endArrow=block;endFill=0;" edge="1" parent="WIyWlLk6GJQsqaUBKTNV-1" source="58yIOTkPHo44h-EmWvCA-19" target="58yIOTkPHo44h-EmWvCA-30">
          <mxGeometry relative="1" as="geometry" />
        </mxCell>
        <mxCell id="58yIOTkPHo44h-EmWvCA-19" value="用户点击升级" style="rounded=1;whiteSpace=wrap;html=1;" vertex="1" parent="WIyWlLk6GJQsqaUBKTNV-1">
          <mxGeometry x="160" y="880" width="120" height="40" as="geometry" />
        </mxCell>
        <mxCell id="58yIOTkPHo44h-EmWvCA-24" style="edgeStyle=orthogonalEdgeStyle;rounded=0;orthogonalLoop=1;jettySize=auto;html=1;entryX=0;entryY=0.5;entryDx=0;entryDy=0;endArrow=block;endFill=0;" edge="1" parent="WIyWlLk6GJQsqaUBKTNV-1" source="58yIOTkPHo44h-EmWvCA-21" target="58yIOTkPHo44h-EmWvCA-23">
          <mxGeometry relative="1" as="geometry" />
        </mxCell>
        <mxCell id="58yIOTkPHo44h-EmWvCA-25" style="edgeStyle=orthogonalEdgeStyle;rounded=0;orthogonalLoop=1;jettySize=auto;html=1;exitX=0.5;exitY=1;exitDx=0;exitDy=0;entryX=0.5;entryY=0;entryDx=0;entryDy=0;endArrow=block;endFill=0;" edge="1" parent="WIyWlLk6GJQsqaUBKTNV-1" source="58yIOTkPHo44h-EmWvCA-21" target="58yIOTkPHo44h-EmWvCA-17">
          <mxGeometry relative="1" as="geometry" />
        </mxCell>
        <mxCell id="58yIOTkPHo44h-EmWvCA-21" value="下载成功" style="rhombus;whiteSpace=wrap;html=1;" vertex="1" parent="WIyWlLk6GJQsqaUBKTNV-1">
          <mxGeometry x="180" y="680" width="80" height="80" as="geometry" />
        </mxCell>
        <mxCell id="58yIOTkPHo44h-EmWvCA-43" style="edgeStyle=orthogonalEdgeStyle;rounded=0;orthogonalLoop=1;jettySize=auto;html=1;endArrow=block;endFill=0;" edge="1" parent="WIyWlLk6GJQsqaUBKTNV-1" source="58yIOTkPHo44h-EmWvCA-23">
          <mxGeometry relative="1" as="geometry">
            <mxPoint x="520" y="720" as="targetPoint" />
          </mxGeometry>
        </mxCell>
        <mxCell id="58yIOTkPHo44h-EmWvCA-23" value="uim上报下载失败" style="rounded=1;whiteSpace=wrap;html=1;" vertex="1" parent="WIyWlLk6GJQsqaUBKTNV-1">
          <mxGeometry x="320" y="700" width="120" height="40" as="geometry" />
        </mxCell>
        <mxCell id="58yIOTkPHo44h-EmWvCA-36" style="edgeStyle=orthogonalEdgeStyle;rounded=0;orthogonalLoop=1;jettySize=auto;html=1;exitX=0.5;exitY=1;exitDx=0;exitDy=0;entryX=0.5;entryY=0;entryDx=0;entryDy=0;endArrow=block;endFill=0;" edge="1" parent="WIyWlLk6GJQsqaUBKTNV-1" source="58yIOTkPHo44h-EmWvCA-30" target="58yIOTkPHo44h-EmWvCA-32">
          <mxGeometry relative="1" as="geometry" />
        </mxCell>
        <mxCell id="58yIOTkPHo44h-EmWvCA-30" value="执行升级" style="rounded=1;whiteSpace=wrap;html=1;" vertex="1" parent="WIyWlLk6GJQsqaUBKTNV-1">
          <mxGeometry x="160" y="960" width="120" height="40" as="geometry" />
        </mxCell>
        <mxCell id="58yIOTkPHo44h-EmWvCA-34" style="edgeStyle=orthogonalEdgeStyle;rounded=0;orthogonalLoop=1;jettySize=auto;html=1;exitX=1;exitY=0.5;exitDx=0;exitDy=0;entryX=0;entryY=0.5;entryDx=0;entryDy=0;endArrow=block;endFill=0;" edge="1" parent="WIyWlLk6GJQsqaUBKTNV-1" source="58yIOTkPHo44h-EmWvCA-32" target="58yIOTkPHo44h-EmWvCA-33">
          <mxGeometry relative="1" as="geometry" />
        </mxCell>
        <mxCell id="58yIOTkPHo44h-EmWvCA-37" style="edgeStyle=orthogonalEdgeStyle;rounded=0;orthogonalLoop=1;jettySize=auto;html=1;exitX=0.5;exitY=1;exitDx=0;exitDy=0;entryX=0.5;entryY=0;entryDx=0;entryDy=0;endArrow=block;endFill=0;" edge="1" parent="WIyWlLk6GJQsqaUBKTNV-1" source="58yIOTkPHo44h-EmWvCA-32" target="58yIOTkPHo44h-EmWvCA-35">
          <mxGeometry relative="1" as="geometry" />
        </mxCell>
        <mxCell id="58yIOTkPHo44h-EmWvCA-32" value="升级结束" style="rhombus;whiteSpace=wrap;html=1;" vertex="1" parent="WIyWlLk6GJQsqaUBKTNV-1">
          <mxGeometry x="180" y="1040" width="80" height="80" as="geometry" />
        </mxCell>
        <mxCell id="58yIOTkPHo44h-EmWvCA-48" style="edgeStyle=orthogonalEdgeStyle;rounded=0;orthogonalLoop=1;jettySize=auto;html=1;exitX=0.5;exitY=0;exitDx=0;exitDy=0;endArrow=block;endFill=0;" edge="1" parent="WIyWlLk6GJQsqaUBKTNV-1" source="58yIOTkPHo44h-EmWvCA-33">
          <mxGeometry relative="1" as="geometry">
            <mxPoint x="220" y="1020" as="targetPoint" />
            <Array as="points">
              <mxPoint x="380" y="1020" />
              <mxPoint x="220" y="1020" />
            </Array>
          </mxGeometry>
        </mxCell>
        <mxCell id="58yIOTkPHo44h-EmWvCA-33" value="uim上报升级进度" style="rounded=1;whiteSpace=wrap;html=1;" vertex="1" parent="WIyWlLk6GJQsqaUBKTNV-1">
          <mxGeometry x="320" y="1060" width="120" height="40" as="geometry" />
        </mxCell>
        <mxCell id="58yIOTkPHo44h-EmWvCA-41" style="edgeStyle=orthogonalEdgeStyle;rounded=0;orthogonalLoop=1;jettySize=auto;html=1;exitX=1;exitY=0.5;exitDx=0;exitDy=0;endArrow=block;endFill=0;" edge="1" parent="WIyWlLk6GJQsqaUBKTNV-1" source="58yIOTkPHo44h-EmWvCA-35" target="58yIOTkPHo44h-EmWvCA-40">
          <mxGeometry relative="1" as="geometry" />
        </mxCell>
        <mxCell id="58yIOTkPHo44h-EmWvCA-35" value="uim上报升级结果" style="rounded=1;whiteSpace=wrap;html=1;" vertex="1" parent="WIyWlLk6GJQsqaUBKTNV-1">
          <mxGeometry x="160" y="1160" width="120" height="40" as="geometry" />
        </mxCell>
        <mxCell id="58yIOTkPHo44h-EmWvCA-40" value="结束" style="rounded=1;whiteSpace=wrap;html=1;" vertex="1" parent="WIyWlLk6GJQsqaUBKTNV-1">
          <mxGeometry x="465" y="1160" width="120" height="40" as="geometry" />
        </mxCell>
      </root>
    </mxGraphModel>
  </diagram>
</mxfile>
